HIERARCHY
ROOT Hips
{
  OFFSET 13.6774 106.653 -34.4427
  CHANNELS 6 Xposition Yposition Zposition Zrotation Xrotation Yrotation
  JOINT ToSpine
  {
    OFFSET -2.69724 7.43032 -0.144315
    CHANNELS 3 Zrotation Xrotation Yrotation
    JOINT Spine
    {
      OFFSET -0.0310711 10.7595 1.96963
      CHANNELS 3 Zrotation Xrotation Yrotation
      JOINT Spine1
      {
        OFFSET 19.9056 3.91189 0.764692
        CHANNELS 3 Zrotation Xrotation Yrotation
        JOINT Neck
        {
          OFFSET 25.9749 7.03908 -0.130764
          CHANNELS 3 Zrotation Xrotation Yrotation
          JOINT Head
          {
            OFFSET 9.52751 0.295786 -0.907742
            CHANNELS 3 Zrotation Xrotation Yrotation
            End Site
            {
              OFFSET 16.4037 0.713936 2.7358
            }
          }
        }
        JOINT LeftShoulder
        {
          OFFSET 17.7449 4.33886 11.7777
          CHANNELS 3 Zrotation Xrotation Yrotation
          JOINT LeftArm
          {
            OFFSET 0.911315 1.27913 9.80584
            CHANNELS 3 Zrotation Xrotation Yrotation
            JOINT LeftForeArm
            {
              OFFSET 28.6126 1.18197 -3.53199
              CHANNELS 3 Zrotation Xrotation Yrotation
              JOINT LeftHand
              {
                OFFSET 27.5088 0.0218783 0.327423
                CHANNELS 3 Zrotation Xrotation Yrotation
                End Site
                {
                  OFFSET 18.6038 -0.000155887 0.382096
                }
              }
            }
          }
        }
        JOINT RightShoulder
        {
          OFFSET 17.1009 2.89543 -12.2328
          CHANNELS 3 Zrotation Xrotation Yrotation
          JOINT RightArm
          {
            OFFSET 1.4228 0.178766 -10.211
            CHANNELS 3 Zrotation Xrotation Yrotation
            JOINT RightForeArm
            {
              OFFSET 28.733 1.87905 2.64907
              CHANNELS 3 Zrotation Xrotation Yrotation
              JOINT RightHand
              {
                OFFSET 27.4588 0.290562 -0.101845
                CHANNELS 3 Zrotation Xrotation Yrotation
                End Site
                {
                  OFFSET 17.8396 -0.255518 -0.000602873
                }
              }
            }
          }
        }
      }
    }
  }
  JOINT LeftUpLeg
  {
    OFFSET -5.61296 -2.22332 -10.2353
    CHANNELS 3 Zrotation Xrotation Yrotation
    JOINT LeftLeg
    {
      OFFSET 2.56703 -44.7417 -7.93097
      CHANNELS 3 Zrotation Xrotation Yrotation
      JOINT LeftFoot
      {
        OFFSET 3.16933 -46.5642 -3.96578
        CHANNELS 3 Zrotation Xrotation Yrotation
        JOINT LeftToeBase
        {
          OFFSET 0.346054 -6.02161 12.8035
          CHANNELS 3 Zrotation Xrotation Yrotation
          End Site
          {
            OFFSET 0.134235 -1.35082 5.13018
          }
        }
      }
    }
  }
  JOINT RightUpLeg
  {
    OFFSET -5.7928 -1.72406 10.6446
    CHANNELS 3 Zrotation Xrotation Yrotation
    JOINT RightLeg
    {
      OFFSET -2.57161 -44.7178 -7.85259
      CHANNELS 3 Zrotation Xrotation Yrotation
      JOINT RightFoot
      {
        OFFSET -3.10148 -46.5936 -4.03391
        CHANNELS 3 Zrotation Xrotation Yrotation
        JOINT RightToeBase
        {
          OFFSET -0.0828122 -6.13587 12.8035
          CHANNELS 3 Zrotation Xrotation Yrotation
          End Site
          {
            OFFSET -0.131328 -1.35082 5.13018
          }
        }
      }
    }
  }
}
MOTION
Frames: 21
Frame Time: 0.03333333333333333
0.0000 93.1000 0.0000 -64.9581 -44.3064 -158.9757 -71.1901 0.1521 87.3981 92.0285 77.3018 -0.8552 -5.6488 27.3779 2.1406 -144.4968 20.4701 177.9276 -158.4299 57.9775 177.7435 -0.4383 -17.3236 -33.2364 -111.0943 27.4371 -94.8325 19.6819 1.2758 -86.0780 -0.4961 0.3712 -0.8093 -3.1239 11.5026 32.9481 -76.8367 -28.3588 149.3842 17.6517 1.2041 95.3046 0.5157 -1.2345 -0.7251 -37.8387 8.8573 97.0420 -2.6461 47.6544 0.0946 1.1264 -10.7538 -1.5534 2.5960 -5.9984 1.7168 -52.4162 -9.3016 84.8878 -2.6478 46.7521 -23.4975 -18.7982 -8.2817 1.7320 -1.1705 -7.4873 7.0642 
0.0000 93.1000 0.0000 -64.9287 -39.6566 -160.3449 -71.2665 0.3048 87.3883 94.3928 76.8626 -2.7197 -5.8229 27.3035 1.4489 -146.3075 19.2531 179.9520 -153.5441 57.0581 172.9641 -1.2239 -16.9416 -31.9829 -115.5566 25.5654 -92.7925 18.3422 0.9163 -86.0362 0.6784 -0.6429 1.2125 -1.8977 9.7190 36.8801 -70.6987 -23.2111 150.4529 17.0991 1.9453 98.3348 -0.7647 2.4784 2.2290 -34.9810 10.3723 97.1522 -2.6574 48.6977 1.7556 -0.2206 -11.3027 -1.2680 0.1313 -3.8745 1.6613 -52.1595 -10.5339 86.7806 -1.4642 39.9499 -20.4663 -20.0938 -8.5462 0.7524 1.2659 -6.5112 5.5222 
0.0000 93.1000 0.0000 -65.1333 -35.5271 -161.5059 -71.3155 0.2896 87.6134 98.1549 76.5177 -3.9705 -4.9362 25.7694 2.7817 -147.2024 19.1029 -173.8016 -152.1082 55.9878 174.2911 -0.4421 -17.7294 -31.2995 -120.1143 20.2608 -89.0316 16.9545 1.0999 -85.9185 -0.2925 0.4724 -0.2959 -2.8527 9.3564 36.7876 -64.9273 -20.1769 150.4127 17.5028 3.0311 100.5336 0.0434 -0.4780 -0.3248 -32.4649 11.0445 95.7207 -2.4894 48.8139 3.8405 -0.4689 -11.1476 -1.4993 1.2626 -5.1315 2.9782 -52.4362 -12.3965 88.8942 -2.3576 36.1603 -14.3675 -19.4186 -5.0734 2.2491 -0.7480 -9.1161 7.2605 
0.0000 93.1000 0.0000 -63.9051 -30.8390 -162.9683 -71.3043 0.4549 87.6898 92.0050 75.4227 1.0721 -3.7271 24.0764 3.4222 -147.1374 17.7825 -170.7685 -150.9048 54.0658 175.2823 -0.7904 -17.9505 -30.3252 -124.2171 13.4625 -84.8969 15.0280 1.1217 -83.9271 -0.0223 0.1760 -0.1790 -2.7643 8.6135 37.5538 -58.9046 -18.1039 149.5196 15.1005 3.0846 102.4695 -0.0851 -0.0063 0.0087 -30.9686 12.2302 97.1893 -1.3585 47.7607 4.0486 -0.4976 -9.7860 -1.0793 0.7393 -4.8728 1.6262 -50.6896 -14.8961 87.0028 -2.9744 31.2304 -0.8361 -17.8985 -2.1861 1.8346 1.0282 -14.1323 4.0093 
0.0000 93.1000 0.0000 -61.8758 -28.0187 -163.5966 -71.0923 0.4501 87.7725 80.9132 73.5936 9.8270 -1.0399 22.3236 3.0153 -147.2377 16.0025 -167.6790 -149.6439 52.2505 176.4294 -0.8787 -18.1730 -29.1923 -127.5518 7.4917 -80.7429 13.5690 1.1708 -83.2370 0.1763 -0.0887 0.1975 -2.7332 7.7581 37.6778 -53.7614 -17.5963 149.4176 14.9145 2.9596 103.1433 -0.0477 0.0717 0.0732 -30.6995 15.2887 101.2696 -1.8994 45.5494 4.0051 -1.2182 -8.2512 -0.9227 0.6723 -3.0937 -1.0931 -48.1590 -16.7474 82.6417 -4.1197 28.7372 10.3831 -17.5148 0.3183 1.6278 3.0629 -20.4964 4.9339 
0.0000 93.1000 0.0000 -62.3779 -24.9864 -164.7847 -70.9906 -1.3761 87.5982 80.1117 71.7206 11.8318 0.6054 20.9345 2.1744 -147.3792 14.4658 -166.0697 -148.8702 49.9403 177.7735 -2.2094 -18.2322 -28.7224 -129.9408 1.3504 -78.1065 12.8740 0.1521 -81.9333 -0.5166 -1.1349 -0.0652 -4.3365 7.4435 38.2693 -48.9194 -16.9844 148.7596 15.8466 4.4137 104.6895 0.0481 -0.6253 -1.4428 -30.8207 20.0672 105.3130 -1.6075 44.5838 1.8641 -1.5668 -6.2732 -0.1562 2.5897 -5.3281 -2.8880 -46.8558 -15.6278 81.1150 -1.4693 26.5536 8.2995 -13.8844 1.1274 1.0888 1.2354 -22.6130 14.6233 
0.0000 93.1000 0.0000 -62.9618 -22.1474 -164.6270 -70.9875 -0.2677 87.7487 81.6868 70.5818 9.0106 1.2210 20.0641 1.7788 -145.4710 13.3192 -165.4303 -147.0905 48.3963 -180.9459 -1.5473 -17.9015 -29.2930 -132.3334 -2.8662 -75.8873 12.8131 1.6349 -81.1403 -0.4334 -0.5088 -0.1297 -2.7806 6.9506 37.8254 -46.4302 -17.2500 146.6542 16.6530 5.3342 105.2634 -0.2067 0.0337 -0.1055 -30.7146 24.9299 107.3137 -2.8465 45.8252 -0.1792 -2.2213 -3.0485 -0.5423 3.2882 -7.1046 -3.2414 -46.4241 -13.1550 81.3444 -1.5155 25.1838 4.4730 -12.6929 0.1075 1.0644 2.0204 -24.0323 21.2787 
0.0000 93.1000 0.0000 -63.0514 -22.1957 -166.0613 -71.0530 0.4551 87.6591 83.7428 69.5317 5.1582 1.0678 18.1729 1.5442 -144.1905 11.9706 -165.6217 -144.8792 47.1267 -180.9869 -1.0455 -17.8194 -29.2779 -135.3276 -5.6313 -74.9620 12.6923 2.1117 -80.0692 0.2269 -0.0871 0.1706 -1.4354 6.5933 37.1218 -45.8141 -18.1257 145.3873 16.5791 5.2485 105.8350 -0.5122 1.0657 1.0188 -30.0497 26.6943 107.0630 -3.0030 46.5923 -2.4017 -2.7317 -1.8252 -0.5552 2.2960 -6.9361 -1.0801 -46.3291 -11.7684 82.6075 -1.5706 26.4827 4.4554 -11.3686 -3.9150 0.9713 3.4028 -22.6786 21.4381 
0.0000 93.1000 0.0000 -63.9964 -22.7874 -166.1688 -70.9857 -0.4184 87.2253 85.5195 68.5806 2.6297 1.1186 17.2407 1.0609 -142.3720 11.5491 -166.8620 -141.6954 45.3954 176.9538 -0.9537 -18.1183 -30.3704 -137.2086 -7.4974 -75.1127 13.0465 2.1589 -80.2353 0.1721 0.0966 -0.3225 -2.3506 6.9641 34.6943 -44.6342 -20.0235 145.3898 16.4820 5.2700 106.2099 0.0114 -0.1414 -0.2853 -30.7772 27.1185 105.2323 -3.4264 46.6401 -7.0528 -3.9159 -3.9413 -0.4757 2.8619 -8.1932 4.6721 -45.3237 -11.7425 83.0020 -1.7139 30.1340 5.3127 -8.6401 -8.8389 1.0139 2.0068 -20.1489 21.5117 
0.0000 93.1000 0.0000 -64.9370 -22.2717 -165.2813 -71.0296 -0.0327 87.3835 86.4761 68.0428 4.9728 2.6810 17.0444 -0.5983 -141.4688 11.2909 -166.7720 -141.0253 44.4695 176.1523 -0.9278 -18.2065 -33.5410 -139.3033 -8.8338 -75.0281 12.8818 1.7121 -80.1890 -0.0199 0.1882 -0.0509 -1.8405 6.9188 32.5516 -44.6769 -20.1091 143.4817 15.5389 5.1869 108.3242 -0.0164 -0.2388 -0.1413 -31.8024 27.0579 103.4304 -3.5566 44.6643 -9.9781 -3.5844 -5.0590 -0.8011 2.2711 -7.8849 6.5614 -45.3816 -10.7230 84.0309 -0.0352 33.2977 3.9798 -10.0459 -9.9910 1.1869 2.7495 -21.9330 20.0980 
0.0000 93.1000 0.0000 -65.5758 -21.1100 -165.7579 -71.0539 -0.0975 87.4263 86.6118 67.6431 7.7192 4.0328 17.2187 -1.5174 -141.3436 11.1906 -164.7332 -140.7549 44.1230 178.2696 -1.3663 -18.9971 -36.4244 -141.0639 -8.7396 -72.9785 11.9359 1.0221 -81.0055 -0.1471 0.3604 -0.0057 -1.7530 7.1769 32.0479 -44.6019 -18.9841 142.3046 14.5851 5.1867 109.4330 0.0516 -0.0978 -0.0556 -32.8950 27.6662 102.2708 -2.8577 43.7007 -6.4695 -1.0019 -3.8397 -1.1349 1.9691 -6.3928 2.6742 -45.6560 -8.2063 85.4675 0.5630 34.1412 2.3378 -11.8399 -10.9640 1.0615 2.7775 -22.2922 17.7302 
0.0000 93.1000 0.0000 -66.8900 -21.9222 -167.0026 -70.9101 0.3687 87.4440 87.5955 67.7681 6.0013 4.9163 17.0714 -1.4266 -140.2328 10.9433 -164.2082 -139.4805 43.4170 177.5223 -1.2567 -18.8390 -37.4053 -141.3092 -7.5073 -70.8891 11.5581 1.1141 -82.2561 -0.1029 0.2505 0.0128 -1.4537 6.8366 33.6574 -44.6956 -17.9146 138.3541 12.4504 4.8038 110.1507 -0.1233 0.2728 0.5988 -34.7117 27.8505 102.0313 -2.7673 42.5841 -5.0202 -1.2020 -2.6746 -1.3320 1.4899 -6.6937 0.5390 -46.2800 -6.7166 87.3804 0.5947 35.0781 1.1962 -13.1673 -11.8448 1.0292 3.7367 -22.3615 16.0631 
0.0000 93.1000 0.0000 -68.6897 -22.0717 -167.0961 -70.9079 -0.2287 87.3979 88.4318 67.5945 5.4252 5.1724 16.4881 -1.2326 -139.2639 11.4733 -164.5927 -140.0767 43.0192 176.5590 -1.2854 -18.2477 -37.6745 -140.0867 -6.7098 -69.9443 12.0466 0.7894 -82.1653 -0.1050 0.1718 -0.5807 -2.3793 6.9116 35.7464 -43.5727 -17.9272 135.1782 11.7436 5.3967 111.2049 0.1851 -0.4210 -0.4249 -36.0462 27.8556 102.2843 -2.0389 41.5175 -5.5627 -0.8597 -2.0153 -0.8899 2.3276 -7.4994 -0.8489 -47.0788 -7.0243 89.0282 0.3618 37.0503 -1.9596 -11.8824 -13.0398 1.1362 2.3482 -21.9073 17.2722 
0.0000 93.1000 0.0000 -68.7780 -22.8698 -167.8467 -70.9018 -0.0756 87.5614 86.6473 67.6909 6.9182 5.8856 16.9769 -1.7000 -138.2128 11.2780 -164.3562 -141.1919 43.1339 175.8912 -1.9126 -19.0362 -38.5687 -139.1077 -6.7282 -69.8361 11.9169 1.8612 -81.2310 0.0044 -0.0751 -0.2131 -2.1006 6.7663 35.5935 -42.5391 -18.8883 136.2827 13.4297 6.2543 111.1103 0.0488 0.1704 0.0568 -37.7889 27.4900 102.2502 -2.3571 40.7515 -5.5567 -1.2324 -0.9837 -0.5322 2.7443 -8.4258 0.0325 -46.5029 -7.0813 88.4907 0.6725 39.2441 -1.8360 -11.8011 -13.7881 0.8739 2.5855 -21.3762 18.1804 
0.0000 93.1000 0.0000 -68.6994 -22.8200 -169.9686 -70.9251 -0.0769 87.4770 84.6520 67.6488 8.9473 6.1521 17.2773 -1.7343 -137.3066 11.2882 -164.2388 -139.2325 43.3743 176.2099 -2.1896 -18.9669 -39.4267 -139.2230 -6.5474 -69.7691 11.9569 2.0197 -81.0853 0.1862 -0.1573 0.1478 -1.9846 6.7753 35.9233 -42.6927 -20.0536 135.4613 14.6759 6.0714 111.1636 -0.2442 0.4944 0.2316 -39.0769 26.7205 102.4052 -2.7944 39.8828 -5.3527 -2.6382 -0.8861 -0.0444 2.8836 -8.0589 0.1423 -47.2202 -6.9636 90.2725 0.8082 39.9826 -2.5133 -11.3442 -14.8813 0.7233 2.2653 -20.1649 17.3927 
0.0000 93.1000 0.0000 -69.7257 -22.9648 -169.5830 -70.8542 -0.0793 87.4860 84.6433 67.6505 11.0984 6.8416 18.1877 -3.1717 -137.2455 11.3099 -164.9571 -139.2783 43.2531 175.1119 -2.2794 -18.3424 -39.4928 -139.2057 -4.8495 -69.4422 11.9444 2.1584 -80.1728 0.1856 -0.1366 0.1939 -1.9998 7.0426 36.8338 -41.6462 -20.1705 135.3248 14.7308 6.3426 111.0684 -0.2095 0.3489 0.0617 -39.8161 26.6012 102.1490 -3.2429 39.6958 -4.7867 -2.8107 -1.0900 0.3105 2.9461 -8.2625 1.1398 -47.3085 -6.7384 90.3186 1.1020 40.2093 -2.2070 -11.7739 -14.9041 0.8885 1.9135 -21.1434 16.2861 
0.0000 93.1000 0.0000 -70.6630 -22.9655 -170.4873 -70.9382 0.0953 87.4608 84.7673 67.7295 11.0756 6.9697 18.1313 -3.6287 -137.2653 11.3421 -165.6005 -139.6719 43.2014 174.5227 -1.7131 -18.1415 -37.8489 -138.0166 -3.7247 -68.5607 12.0546 1.8965 -79.9988 -0.0157 0.1781 -0.1720 -1.9541 6.9820 38.7206 -41.5925 -19.9686 134.5984 13.7764 6.3783 110.9732 0.0763 -0.0554 -0.1307 -40.9231 25.7213 102.2216 -3.2346 38.6994 -3.8026 -2.8022 -0.8209 -0.0733 3.0252 -8.4270 0.2141 -48.1907 -7.1224 90.3727 0.8391 41.1436 -2.8208 -11.9596 -15.0679 1.0926 1.7910 -21.1742 16.4074 
0.0000 93.1000 0.0000 -70.8359 -23.8088 -170.5066 -71.0916 -0.0009 87.5348 84.6511 68.5036 9.0633 5.9013 18.1568 -1.2744 -137.3307 11.8573 -163.6987 -140.3433 44.0633 175.4848 -2.0493 -18.9754 -39.1519 -138.0852 -3.5565 -69.7352 10.9629 1.9594 -80.0108 -0.0754 0.0537 -0.2086 -1.9680 6.9026 37.7844 -41.6507 -20.9626 134.5499 14.2298 6.1900 111.2904 -0.0812 -0.0619 -0.0672 -41.8986 25.4955 101.2743 -2.9670 39.0304 -3.1122 -2.9131 -0.9270 -0.0182 3.0101 -8.1317 -0.7523 -48.3319 -8.1979 90.2974 0.8141 41.0765 -3.0039 -12.1360 -15.0155 1.0673 1.7975 -21.2090 16.2288 
0.0000 93.1000 0.0000 -70.7683 -23.8305 -170.5592 -71.0112 -0.0556 87.6217 84.6691 68.7879 9.0495 6.1115 18.4616 -1.1022 -138.2779 11.1626 -164.0032 -141.9296 43.4222 175.6887 -2.3573 -19.1331 -39.5667 -138.2068 -3.6306 -69.7956 10.9195 1.2599 -80.0557 -0.1072 0.0071 0.0616 -1.8975 6.8173 37.8120 -41.6132 -21.1605 134.5633 13.6664 5.1718 111.1146 -0.0293 0.2795 0.2983 -41.9732 24.7229 100.3285 -2.5338 38.9426 -3.2933 -2.6781 -1.0617 0.1185 2.9279 -8.3280 0.0791 -48.3311 -8.2587 90.3058 0.9284 42.0570 -2.0067 -12.2200 -14.8768 0.9206 2.6482 -22.0035 14.2390 
0.0000 93.1000 0.0000 -70.6857 -23.8042 -171.6746 -70.8815 -0.1387 87.6281 84.7148 69.5540 9.1474 6.0863 19.0716 -0.2343 -138.3376 11.0693 -163.9592 -141.2163 44.1393 175.3546 -2.2110 -19.0016 -40.3558 -138.1182 -3.7554 -69.7376 10.9573 1.9963 -79.8848 0.1485 -0.0658 -0.0072 -1.9363 6.8729 37.8162 -41.5882 -21.3448 134.6529 13.8638 5.3421 110.0839 -0.0063 0.3087 0.3470 -41.8495 24.6300 100.1043 -2.6132 38.8815 -3.3417 -2.9341 -1.0481 0.0498 2.7592 -8.4660 0.2240 -48.1145 -8.2761 90.3562 0.5683 42.9898 -1.9046 -12.9671 -15.1007 1.0584 2.7080 -22.0191 14.3609 
0.0000 93.1000 0.0000 -70.6716 -24.0220 -171.6279 -70.9216 0.0685 87.5407 84.6415 69.4967 9.1490 5.8317 19.0554 -0.0275 -138.2125 11.1901 -163.3541 -142.0123 44.3101 175.5050 -2.0329 -19.0297 -39.4857 -138.1914 -3.4543 -69.6362 10.7938 2.0588 -79.8884 0.0027 0.0885 -0.2496 -1.9635 6.9284 37.7839 -41.5601 -21.8294 135.5261 14.4533 5.9189 110.2208 -0.0059 0.1841 0.0015 -41.8476 24.6133 100.1684 -2.7433 38.9527 -3.1541 -3.0493 -0.0373 0.0651 3.0434 -9.2515 0.3450 -48.3900 -8.0352 90.3884 0.4557 42.9274 -1.8682 -12.9650 -15.0443 0.9426 3.0071 -22.2285 13.3167 
